<?xml version="1.0" encoding="UTF-8" standalone="no"?><!-- Generator: Gravit.io --><svg xmlns="http://www.w3.org/2000/svg" xmlns:xlink="http://www.w3.org/1999/xlink" style="isolation:isolate" viewBox="0 0 512 512" width="512pt" height="512pt"><defs><clipPath id="_clipPath_9meTA2hJgtVFL9w9qZXJZJsFIQ96rbag"><rect width="512" height="512"/></clipPath></defs><g clip-path="url(#_clipPath_9meTA2hJgtVFL9w9qZXJZJsFIQ96rbag)"><g><path d=" M 0 0 L 512 0 L 512 512 L 0 512 L 0 0 Z " fill="rgb(195,29,82)"/><path d=" M 103.406 380.656 L 70.023 380.656 L 70.023 219.065 L 70.023 219.065 Q 70.023 176.092 91.154 152.298 L 91.154 152.298 L 91.154 152.298 Q 112.285 128.503 151.351 128.503 L 151.351 128.503 L 151.351 128.503 Q 190.772 128.503 211.903 147.681 L 211.903 147.681 L 211.903 147.681 Q 233.034 166.859 233.034 201.663 L 233.034 201.663 L 233.034 201.663 Q 233.034 224.037 222.38 238.243 L 222.38 238.243 L 222.38 238.243 Q 211.725 252.449 186.155 260.617 L 186.155 260.617 L 186.155 262.037 L 186.155 262.037 Q 212.791 272.337 221.847 291.337 L 221.847 291.337 L 221.847 291.337 Q 230.903 310.337 230.903 354.02 L 230.903 354.02 L 230.903 380.656 L 197.52 380.656 L 197.52 335.197 L 197.52 335.197 Q 197.52 308.206 182.248 293.113 L 182.248 293.113 L 182.248 293.113 Q 166.977 278.019 138.21 278.019 L 138.21 278.019 L 119.033 278.019 L 119.033 246.766 L 139.276 246.766 L 139.276 246.766 Q 173.37 246.766 186.51 232.916 L 186.51 232.916 L 186.51 232.916 Q 199.65 219.065 199.65 199.887 L 199.65 199.887 L 199.65 199.887 Q 199.65 181.775 186.688 170.765 L 186.688 170.765 L 186.688 170.765 Q 173.725 159.756 152.416 159.756 L 152.416 159.756 L 152.416 159.756 Q 127.911 159.756 115.659 173.606 L 115.659 173.606 L 115.659 173.606 Q 103.406 187.457 103.406 219.065 L 103.406 219.065 L 103.406 380.656 Z  M 272.1 295.421 L 272.1 132.055 L 304.063 132.055 L 304.063 295.421 L 304.063 295.421 Q 304.063 323.477 318.446 338.926 L 318.446 338.926 L 318.446 338.926 Q 332.83 354.375 358.045 354.375 L 358.045 354.375 L 358.045 354.375 Q 384.326 354.375 399.242 339.281 L 399.242 339.281 L 399.242 339.281 Q 414.158 324.188 414.158 295.421 L 414.158 295.421 L 414.158 295.421 Q 414.158 268.075 397.999 252.271 L 397.999 252.271 L 397.999 252.271 Q 381.84 236.467 355.559 236.467 L 355.559 236.467 L 355.559 236.467 Q 333.185 236.467 316.848 249.252 L 316.848 249.252 L 316.848 217.289 L 316.848 217.289 Q 336.381 206.635 359.11 206.635 L 359.11 206.635 L 359.11 206.635 Q 396.756 206.635 421.438 230.962 L 421.438 230.962 L 421.438 230.962 Q 446.121 255.29 446.121 295.421 L 446.121 295.421 L 446.121 295.421 Q 446.121 337.683 420.373 360.945 L 420.373 360.945 L 420.373 360.945 Q 394.625 384.207 355.559 384.207 L 355.559 384.207 L 355.559 384.207 Q 318.269 384.207 295.184 360.057 L 295.184 360.057 L 295.184 360.057 Q 272.1 335.908 272.1 295.421 L 272.1 295.421 Z " fill="rgb(255,255,255)"/></g></g></svg>