<?xml version="1.0" encoding="UTF-8" standalone="no"?><!-- Generator: Gravit.io --><svg xmlns="http://www.w3.org/2000/svg" xmlns:xlink="http://www.w3.org/1999/xlink" style="isolation:isolate" viewBox="0 0 512 512" width="512pt" height="512pt"><defs><clipPath id="_clipPath_XdARkNRnVaL1IQieUPaXbf6aObfC6lKq"><rect width="512" height="512"/></clipPath></defs><g clip-path="url(#_clipPath_XdARkNRnVaL1IQieUPaXbf6aObfC6lKq)"><rect width="512" height="512" style="fill:rgb(215,0,79)"/><path d=" M 105.406 380.656 L 72.023 380.656 L 72.023 219.065 L 72.023 219.065 Q 72.023 176.092 93.154 152.298 L 93.154 152.298 L 93.154 152.298 Q 114.285 128.503 153.351 128.503 L 153.351 128.503 L 153.351 128.503 Q 192.772 128.503 213.903 147.681 L 213.903 147.681 L 213.903 147.681 Q 235.034 166.859 235.034 201.663 L 235.034 201.663 L 235.034 201.663 Q 235.034 224.037 224.38 238.243 L 224.38 238.243 L 224.38 238.243 Q 213.725 252.449 188.155 260.617 L 188.155 260.617 L 188.155 262.037 L 188.155 262.037 Q 214.791 272.337 223.847 291.337 L 223.847 291.337 L 223.847 291.337 Q 232.903 310.337 232.903 354.02 L 232.903 354.02 L 232.903 380.656 L 199.52 380.656 L 199.52 335.197 L 199.52 335.197 Q 199.52 308.206 184.248 293.113 L 184.248 293.113 L 184.248 293.113 Q 168.977 278.019 140.21 278.019 L 140.21 278.019 L 121.033 278.019 L 121.033 246.766 L 141.276 246.766 L 141.276 246.766 Q 175.37 246.766 188.51 232.916 L 188.51 232.916 L 188.51 232.916 Q 201.65 219.065 201.65 199.887 L 201.65 199.887 L 201.65 199.887 Q 201.65 181.775 188.688 170.765 L 188.688 170.765 L 188.688 170.765 Q 175.725 159.756 154.416 159.756 L 154.416 159.756 L 154.416 159.756 Q 129.911 159.756 117.659 173.606 L 117.659 173.606 L 117.659 173.606 Q 105.406 187.457 105.406 219.065 L 105.406 219.065 L 105.406 380.656 Z  M 274.1 295.421 L 274.1 132.055 L 306.063 132.055 L 306.063 295.421 L 306.063 295.421 Q 306.063 323.477 320.446 338.926 L 320.446 338.926 L 320.446 338.926 Q 334.83 354.375 360.045 354.375 L 360.045 354.375 L 360.045 354.375 Q 386.326 354.375 401.242 339.281 L 401.242 339.281 L 401.242 339.281 Q 416.158 324.188 416.158 295.421 L 416.158 295.421 L 416.158 295.421 Q 416.158 268.075 399.999 252.271 L 399.999 252.271 L 399.999 252.271 Q 383.84 236.467 357.559 236.467 L 357.559 236.467 L 357.559 236.467 Q 335.185 236.467 318.848 249.252 L 318.848 249.252 L 318.848 217.289 L 318.848 217.289 Q 338.381 206.635 361.11 206.635 L 361.11 206.635 L 361.11 206.635 Q 398.756 206.635 423.438 230.962 L 423.438 230.962 L 423.438 230.962 Q 448.121 255.29 448.121 295.421 L 448.121 295.421 L 448.121 295.421 Q 448.121 337.683 422.373 360.945 L 422.373 360.945 L 422.373 360.945 Q 396.625 384.207 357.559 384.207 L 357.559 384.207 L 357.559 384.207 Q 320.269 384.207 297.184 360.057 L 297.184 360.057 L 297.184 360.057 Q 274.1 335.908 274.1 295.421 L 274.1 295.421 Z " fill="rgb(255,255,255)"/></g></svg>